<svg version="1.1" xmlns="http://www.w3.org/2000/svg" viewBox="0 0 477.15131578947353 225">
  <!-- svg-source:excalidraw -->
  <defs>
    <style>
      @font-face {
        font-family: "Virgil";
        src: url("https://excalidraw.com/FG_Virgil.woff2");
      }
      @font-face {
        font-family: "Cascadia";
        src: url("https://excalidraw.com/Cascadia.woff2");
      }
    </style>
  </defs>
  <g transform="translate(79.125 76.875) rotate(0 71.25 47.1875)"><path d="M1.6056754682213068 -0.43947348929941654 C31.522415495244786 -1.3384471812052652, 67.50459474651143 -1.0981772222323343, 141.38134939409792 1.6166025009006262 M0.12171326112002134 -0.7791724754497409 C36.32809950620868 -0.3346227091969922, 70.5759696303867 -0.8503956777276471, 142.67368180584162 -0.2055502189323306 M141.4973519537598 1.1761599387973547 C140.2279760717589 25.549714267079253, 142.51575272075715 54.04712990822736, 144.40139234997332 92.48512556217611 M142.3509748680517 0.4078557239845395 C141.91996995767695 37.049122901808005, 143.0522356744681 73.78887507261243, 142.3372800750658 93.72150350082666 M140.57658375240862 93.1493125166744 C111.83503263932653 95.26674888886046, 83.0721287583001 94.91012935198378, 1.1993836853653193 93.82487626932561 M143.13402656745166 93.47143745888025 C92.91862671426497 94.22128572773654, 42.3769739237614 94.22304320049007, 0.1398429973050952 94.7363229142502 M0.08366627432405949 93.02972789667547 C-0.955605249403743 72.32305458950577, 0.7887410712253768 46.84070646238979, -0.7402405645698309 -0.15229235030710697 M-0.1087520020082593 94.8071110593155 C1.091522726061521 63.42882404831471, 1.0259296324278693 31.588047909201123, -0.5109451012685895 0.16901666391640902" style="stroke: rgb(0, 0, 0); stroke-width: 1; fill: none;"></path></g><g><g transform="translate(103.5 80.625) rotate(0 1.1057861562817948 41.33458150905557)"><path d="M0.4175749953836203 -0.837397837266326 C0.790598604703943 12.906080997362732, 1.6730042712142073 68.39334244765341, 1.7939973171800376 82.36949759759008 M0.7432629315834491 -0.9350295353215188 C0.7006145745298514 12.886960463793947, 0.970886525589352 69.94764339026995, 0.9343004949670286 83.60419255343265" style="stroke: rgb(0, 0, 0); stroke-width: 1; fill: none;"></path></g></g><g><g transform="translate(133.5 79.375) rotate(0 -1.2331275806809003 38.867410473399815)"><path d="M-0.710882693901658 0.18148267306387433 C-0.9265874171008666 13.082122457399965, -0.9995848877976337 64.95454778708518, -0.8998885337263345 78.18058849610388 M-1.0340686078090222 -0.44576754930429163 C-1.623116539142405 12.6748723903019, -1.5325638645111272 64.36636285004207, -1.7553724674601108 77.81562323299237" style="stroke: rgb(0, 0, 0); stroke-width: 1; fill: none;"></path></g></g><g><g transform="translate(158.5 82.5) rotate(0 -0.9953104194253797 39.4427101737773)"><path d="M-0.3639915581792593 0.1634951289743185 C-0.818114677692453 13.228059774264693, -1.1349554256846506 65.57498010955752, -1.6266292806714773 78.8279927071184 M-1.4801943728607148 0.05742764043621729 C-1.410451894827808 13.128251433549446, -1.1540192054988196 64.53726469981484, -1.0303685033600778 77.55197430568747" style="stroke: rgb(0, 0, 0); stroke-width: 1; fill: none;"></path></g></g><g><g transform="translate(190.375 83.75) rotate(0 -0.42960175079758756 38.8261673233425)"><path d="M-0.8968506094068289 -0.6757666770368814 C-1.1766714370499054 12.134728830680253, -1.370253594343861 64.2970807608217, -1.6332672473043204 77.60670537315309 M0.7740637457091362 -0.10893087428994486 C0.3177043770470967 13.019651107070967, -0.5313884558559706 65.4561807097774, -1.282232849923894 78.32810132372192" style="stroke: rgb(0, 0, 0); stroke-width: 1; fill: none;"></path></g></g><g><g transform="translate(84.75 100.625) rotate(0 64.77271000819746 0.3250301977127492)"><path d="M0.8708186868578196 -0.7111666861921548 C22.44451755322516 -0.5306882683187724, 108.81168165244164 0.6975450094789264, 130.24789081849158 0.9126994069665668 M-0.7024708020966501 0.9319119926076382 C20.945638925107197 1.2590538494568317, 106.68172319588251 1.5128884448390454, 128.63879516330547 1.256327918646857" style="stroke: rgb(0, 0, 0); stroke-width: 1; fill: none;"></path></g></g><g><g transform="translate(88.5 123.125) rotate(0 58.34667737769428 0.055599526218145456)"><path d="M0.5139705184847116 1.070897775515914 C20.085150921717286 1.0076422151178122, 98.35317790545523 0.8881742294877768, 117.83152192868292 0.7200194533914328 M-1.1381671732943506 -0.20762209159322076 C18.14336996403523 -0.19096605551429088, 97.36799913761206 -0.9661283282656223, 117.07901670363732 -0.9596987230796368" style="stroke: rgb(0, 0, 0); stroke-width: 1; fill: none;"></path></g></g><g><g transform="translate(90.375 147.5) rotate(0 61.20475998225152 0.4895761898439446)"><path d="M0.86659653224051 -0.5187922183424234 C21.082898446296653 -0.5799321476370096, 100.22052203851442 -0.6348455373197796, 120.23082839287818 -0.707647377625108 M1.542708606692031 1.7271536310296507 C21.9523553644338 1.714963250635192, 101.7389421198486 -0.12909945470280926, 121.54292343226261 -0.7480012513417749" style="stroke: rgb(0, 0, 0); stroke-width: 1; fill: none;"></path></g></g><g transform="translate(262.875 73.75) rotate(0 13.4375 49.0625)"><path d="M0.4220686051994562 1.6736415829509497 C8.848169222066645 0.39360558469197715, 17.232531328801997 0.4128748722781893, 25.26467520929873 0.012028058990836143 M0.7862915797159076 -0.9191555334255099 C8.320643783023117 0.9419769207539502, 17.221553107607182 -0.1315696378645953, 27.175826500169933 -0.8040102971717715 M25.666261265054345 0.9725254382938147 C27.753250202635535 24.57071457797429, 28.475528499583014 51.364786514895975, 25.553494105115533 99.71394803188741 M27.22839422058314 0.6924217687919736 C26.471134658524534 30.160102747438945, 26.162821914622327 59.57502360187937, 27.365620295517147 98.85728490818292 M25.426378378644586 99.71071555279195 C18.552541032840963 100.14197301599779, 9.753298184718005 99.2972629639844, 0.6751930210739374 98.36732026003301 M26.972211758606136 98.63379967678338 C17.682488688791636 98.72423483183957, 8.165023423847739 97.3291073863802, 0.01652229856699705 97.67287412751466 M-0.39322214387357235 96.89889307878911 C-1.9164602381235454 75.61040695017437, 1.0997900742047932 49.165142485988326, 1.7782704923301935 -1.1050647292286158 M-0.9564074175432324 97.38254777062684 C-0.32422625757171775 61.60908743547043, 0.41105726622627115 26.07345535501372, 0.7666855854913592 0.6798972534015775" style="stroke: rgb(0, 0, 0); stroke-width: 1; fill: none;"></path></g><g><g transform="translate(269.75 100.625) rotate(0 6.884793513617467 0.7190208986980338)"><path d="M1.0115921314805745 0.16377869881689544 C3.3616552051156754 0.2625728054593007, 12.800415521487594 -0.12152893903354796, 15.161570590361952 -0.20103263817727557 M-1.3919835631269963 1.5014242967683824 C0.9828032140713185 1.9281131032823278, 12.386016738591715 1.2448218940415732, 14.932229306576774 1.3058577674347909" style="stroke: rgb(0, 0, 0); stroke-width: 1; fill: none;"></path></g></g><g><g transform="translate(268.5 123.75) rotate(0 8.735401773080241 0.06859163028187254)"><path d="M0.18430342040956016 -0.2895934101194143 C3.11965791148444 -0.047121401255329404, 14.44099358084301 0.7303075396766266, 17.286500125750898 0.7225701216608287 M0.5753517674189061 0.7251650780159982 C3.2403141573847583 0.79052445299613, 13.701924577631676 -0.29954647464367257, 16.45348091023974 -0.5879818174522371" style="stroke: rgb(0, 0, 0); stroke-width: 1; fill: none;"></path></g></g><g><g transform="translate(266.625 145) rotate(0 8.53111750396431 1.3015586449718342)"><path d="M-0.6382715340703725 1.1947788890451194 C2.564150349671642 1.3890289998302858, 15.737155386184652 1.4651465193678934, 18.671753096953033 1.5187430199235676 M-1.6095180890243501 1.4323247055988761 C1.205850050222749 1.515274302341665, 13.24837959217218 1.3687937433303645, 16.185863963337614 1.084374270020053" style="stroke: rgb(0, 0, 0); stroke-width: 1; fill: none;"></path></g></g><g transform="translate(232 106.25) rotate(0 9 17.5)"><text x="0" y="25" font-family="Virgil" font-size="28px" fill="#000000" text-anchor="start">+</text></g><g transform="translate(10 10) rotate(0 8.5 17.5)"><text x="0" y="25" font-family="Virgil" font-size="28px" fill="#000000" text-anchor="start">X</text></g><g transform="translate(104.875 177.5) rotate(0 48 17.5)"><text x="0" y="25" font-family="Virgil" font-size="28px" fill="#000000" text-anchor="start">weights</text></g><g transform="translate(249.625 180) rotate(0 27 17.5)"><text x="0" y="25" font-family="Virgil" font-size="28px" fill="#000000" text-anchor="start">bias</text></g><g transform="translate(351.625 104.375) rotate(0 19.375 19.0625)"><path d="M14.766650100372743 -0.36755490132008006 C18.52920021658324 -1.163116540324745, 25.318700679339127 0.48415154470380317, 29.19989419766399 2.6454756113614977 C33.08108771598885 4.806799678019193, 36.72226858996141 8.69601839937284, 38.05381121032192 12.600389498626088 C39.385353830682426 16.504760597879336, 38.65622702371796 22.360930207326817, 37.18914991982706 26.07170220688099 C35.72207281593616 29.78247420643516, 32.88702415150926 32.92442447263574, 29.251348586976498 34.865021495951126 C25.615673022443737 36.80561851926651, 19.58154046737976 38.13483392807304, 15.375096532630485 37.71528434677329 C11.16865259788121 37.29573476547353, 6.618294154038961 35.489586951817955, 4.012684978480845 32.34772400815258 C1.407075802922729 29.205861064487213, -0.15365109293153828 23.221993633452037, -0.2585585207182106 18.864106684781067 C-0.36346594850488295 14.506219736110097, -0.11662021234056352 9.35076022771533, 3.383240411760811 6.200402316126764 C6.883101035862186 3.0500444045381983, 17.196432889001464 0.6981091348258651, 20.740605223890036 -0.03804078475032924 C24.284777558778607 -0.7741907043265236, 24.86984138045354 1.3716930745565605, 24.64827442109225 1.7835027986695984 M23.358307730188145 0.9522798369233065 C27.014090621843607 1.4801259500664816, 31.191092975528715 3.756225168052706, 33.862246396257085 6.820919420094153 C36.53339981698545 9.8856136721356, 39.13657143828679 15.468602446722906, 39.38522825455836 19.34044534917199 C39.63388507082993 23.21228825162107, 37.922322368106315 26.946546700955857, 35.354187293886525 30.05197683478865 C32.786052219666736 33.157406968621444, 28.195655659798277 36.85272944951897, 23.976417809239646 37.97302615216874 C19.757179958681014 39.09332285481852, 13.589127240985025 38.73388365438898, 10.038760190534742 36.77375705068728 C6.488393140084458 34.81363044698558, 4.3031249331111345 29.98289360892448, 2.674215506537948 26.212266529958537 C1.0453060799647609 22.441639450992593, -1.0929023498906847 17.9575896781826, 0.2653036310956196 14.149994576891615 C1.623509612081924 10.342399475600628, 7.246501675755054 5.693351400976514, 10.823451392455773 3.366695922212614 C14.400401109156492 1.040040443448714, 19.993095684322167 0.5445374210773857, 21.727001931299935 0.19006170430821712 C23.460908178277702 -0.1644140124609515, 21.252285068945927 0.8002578941371923, 21.22688887432237 1.239841621597602" style="stroke: rgb(0, 0, 0); stroke-width: 1; fill: none;"></path></g><g><g transform="translate(302.25 126.25) rotate(0 17.770742057166103 -1.4165380414575282)"><path d="M0.21785281263291845 -0.8268813963979482 C6.267020703976353 -0.9810983574638764, 30.827542088056607 -1.8033674196650584, 36.8831144746393 -2.0061946865171194 M-1.341630360307172 -1.7991223874967546 C4.884135013896351 -2.0662442092380178, 29.833190416671957 -0.9228968279839805, 35.91823314416222 -1.0528981453459711" style="stroke: rgb(0, 0, 0); stroke-width: 1; fill: none;"></path></g><g transform="translate(302.25 126.25) rotate(0 17.770742057166103 -1.4165380414575282)"><path d="M17.17967806151737 4.998782470641178 C25.363414044638525 2.3483369678404626, 31.400933306080248 -0.711352672209566, 36.473468841671135 -2.4077119889159286 M17.591492495692318 4.9463323671645245 C22.684578015127876 4.165114539663834, 25.05521739806407 1.5872392427612607, 36.38150231862799 -1.0219659220965518" style="stroke: rgb(0, 0, 0); stroke-width: 1; fill: none;"></path></g><g transform="translate(302.25 126.25) rotate(0 17.770742057166103 -1.4165380414575282)"><path d="M17.38383866409039 -7.6405130625712285 C25.382473065518212 -5.879360949227694, 31.348738454076376 -4.527823614479299, 36.473468841671135 -2.407711988915928 M17.795653098265337 -7.692963166047882 C22.781480819770646 -5.923381155296713, 25.11094360175646 -5.952071046661256, 36.38150231862799 -1.0219659220965518" style="stroke: rgb(0, 0, 0); stroke-width: 1; fill: none;"></path></g></g><g transform="translate(147 36.25) rotate(0 4 17.5)"><text x="0" y="25" font-family="Virgil" font-size="28px" fill="#000000" text-anchor="start">.</text></g><g transform="translate(76 14.375) rotate(0 72.8125 14.0625)"><path d="M1.717982480302453 0.7323066797107458 C39.39706714096247 3.0440331429068466, 75.0424088969594 1.4757532208983322, 145.78463197685778 1.5951549019664526 M0.7032269341871142 -0.5326598538085818 C41.641495795745875 0.603329118079273, 84.20453100709712 -0.7715203503903467, 145.14024053048342 0.17564696539193392 M147.2318265531212 -0.8754542861133814 C146.4033718597202 10.127766449877527, 145.3618504893093 21.128444690140896, 145.7593010161072 26.969348510727286 M146.27828035783023 0.4961528228595853 C145.3292798512557 7.467877450457309, 145.64760265880614 15.028535069082865, 146.43896777462214 27.163448785431683 M144.95171959139407 28.206396182999015 C89.01340414193692 26.849647035094677, 29.59127254562918 30.022734453174053, -0.5574785377830267 30.078502675518394 M145.75578720401973 27.354125236161053 C89.918573543604 27.29565682586399, 36.8012800415745 27.7779984432098, -0.09010668564587831 28.585177187807858 M0.04569138027727604 29.693617364391685 C-1.3556245289801154 23.639159123471472, -1.9526611886976752 13.858403504011221, 1.4339637253433466 -1.1370139513164759 M-0.8921150760725141 28.838162903673947 C-1.1620724388340022 20.376688050979283, 0.5337699762603734 13.0740314432187, -0.20629071164876223 0.1410580025985837" style="stroke: rgb(0, 0, 0); stroke-width: 1; fill: none;"></path></g><g><g transform="translate(104.75 21.25) rotate(0 -0.2765403330046752 8.74065177264157)"><path d="M-0.15453689731657505 -0.45057036839425557 C0.0012870049724976185 2.204183694099387, -0.23643672304848828 13.35877505975465, -0.057252759113907814 16.02706481255591 M-1.6877904684562237 0.2662971496302635 C-1.7161605662324777 2.97247405873922, 0.8132968706668667 15.039077293646214, 1.1347098024468871 17.93187391367741" style="stroke: rgb(0, 0, 0); stroke-width: 1; fill: none;"></path></g></g><g><g transform="translate(129.125 20.625) rotate(0 0.06348523204684398 9.958136131339714)"><path d="M0.40820929370820513 0.6708165887743234 C0.46838144225378825 4.011432365948956, 1.469210062051813 16.89307196972271, 1.4375567253679038 20.125690234079958 M-1.3105862612742931 -0.20941797140054397 C-0.8458164944468687 3.342829888534422, 0.9544889369389664 16.98964164750961, 1.3551025243382901 20.01895233360119" style="stroke: rgb(0, 0, 0); stroke-width: 1; fill: none;"></path></g></g><g><g transform="translate(153.5 22.5) rotate(0 0.057246601209044456 8.12568696178495)"><path d="M-0.8760209027677774 -0.8049975033849477 C-0.7208092593898375 2.207906659816702, 0.8353188650061687 14.035266046101848, 0.9905141051858664 17.056371426954865 M0.29467519062571235 1.5061266937572508 C0.4099038687131058 4.141313316992795, 0.704810820001488 13.671425625157232, 0.6266343562584371 16.497010951014236" style="stroke: rgb(0, 0, 0); stroke-width: 1; fill: none;"></path></g></g><g><g transform="translate(186 22.5) rotate(0 1.0798182308161586 9.105001566610298)"><path d="M0.516316306963563 -0.8955465618520975 C0.6264581207185984 1.9891118741283813, 1.70371629036963 14.034885765736302, 1.7469128374010325 17.00457418523729 M0.5438898065406828 0.924851525304839 C0.368735917182639 4.20062498984548, 0.316237815292552 16.291415320116407, 0.7029779898840933 19.105549695072696" style="stroke: rgb(0, 0, 0); stroke-width: 1; fill: none;"></path></g></g><g><g transform="translate(46 30.625) rotate(0 11.666068035988104 0.47552612266068195)"><path d="M-0.7921076361089945 0.9722973827272654 C3.034274686997135 0.973416038726767, 19.218317875886957 0.5221869392941396, 23.116961627826093 0.6547367934137583 M-1.206537642600015 0.8014540546853097 C2.6542343787134937 0.8276948790469519, 20.26784095374557 -0.1793217476488401, 24.53867371457629 -0.0011236879508942366" style="stroke: rgb(0, 0, 0); stroke-width: 1; fill: none;"></path></g><g transform="translate(46 30.625) rotate(0 11.666068035988104 0.47552612266068195)"><path d="M14.389512867037697 3.6041761105330217 C16.294010610653974 1.8392538574257402, 20.877535870350687 2.5462039378637353, 24.435634984340943 -0.7851381770962617 M13.643195916324482 4.4331357319943265 C16.66614136648517 3.1096669104892776, 20.942326643519152 0.9903676557450042, 24.682320797478557 0.09088697125226686" style="stroke: rgb(0, 0, 0); stroke-width: 1; fill: none;"></path></g><g transform="translate(46 30.625) rotate(0 11.666068035988104 0.47552612266068195)"><path d="M14.26871190601347 -4.529148121183653 C16.254968841011664 -3.745734396639131, 20.876331656460447 -0.4912457332466371, 24.435634984340943 -0.7851381770962617 M13.522394955300255 -3.7001884997223478 C16.62192333439067 -2.2266327632989475, 20.939639414487257 -1.549733345053923, 24.682320797478557 0.09088697125226686" style="stroke: rgb(0, 0, 0); stroke-width: 1; fill: none;"></path></g></g><g><g transform="translate(401.49342105263156 119.82894736842104) rotate(0 15.142652877005276 0.41660418134418364)"><path d="M0.4082573879510165 0.5923737835139036 C5.751140797693745 0.6086735446921068, 26.64457076320656 0.1314510934904604, 31.927535578588937 0.21728248613839019 M-1.6422298245783895 -0.13586222344078114 C3.9015199902341675 0.2526766634064246, 25.969443885192725 1.0919224876922011, 31.56724386899637 0.9561687433901147" style="stroke: rgb(0, 0, 0); stroke-width: 1; fill: none;"></path></g><g transform="translate(401.49342105263156 119.82894736842104) rotate(0 15.142652877005276 0.41660418134418364)"><path d="M17.679394556559068 7.224876170992364 C20.745671759437577 5.920603388861814, 26.13532873523631 1.6335033939676908, 30.400426751700586 -0.4373526234873668 M17.291265113910313 5.466180248409862 C21.334919652331706 4.232406037054705, 25.07707299409607 2.6073441692547803, 31.668327619596855 1.3008095951671932" style="stroke: rgb(0, 0, 0); stroke-width: 1; fill: none;"></path></g><g transform="translate(401.49342105263156 119.82894736842104) rotate(0 15.142652877005276 0.41660418134418364)"><path d="M17.806169260519205 -3.3965181853011623 C20.84636067609272 -1.6287983515202695, 26.19935614938921 -2.844337036415424, 30.400426751700586 -0.4373526234873668 M17.41803981787045 -5.155214107883665 C21.45447144786209 -3.2811272148201343, 25.15953357478574 -1.7986257622504376, 31.668327619596855 1.3008095951671932" style="stroke: rgb(0, 0, 0); stroke-width: 1; fill: none;"></path></g></g><g transform="translate(442.15131578947353 100.75000000000006) rotate(0 12.5 17.5)"><text x="0" y="25" font-family="Virgil" font-size="28px" fill="#000000" text-anchor="start">Z</text></g><g><g transform="translate(362.76194800159897 155.5) rotate(0 8.681525999200517 -32.9995747789184)"><path d="M0 -27.062158678903135 C0.9716549780127092 -27.114639022030126, 4.140095123706325 -25.566468899783896, 5.829929868076255 -27.377040737665084 C7.519764612446186 -29.18761257554627, 8.216821444498786 -35.90509649580111, 10.139008466219583 -37.925589706190266 C12.06119548794038 -39.94608291657942, 16.15904474303746 -39.23759828436504, 17.363051998401033 -39.5 M0 -27.062158678903135 C0.9716549780127092 -27.114639022030126, 4.140095123706325 -25.566468899783896, 5.829929868076255 -27.377040737665084 C7.519764612446186 -29.18761257554627, 8.216821444498786 -35.90509649580111, 10.139008466219583 -37.925589706190266 C12.06119548794038 -39.94608291657942, 16.15904474303746 -39.23759828436504, 17.363051998401033 -39.5" style="stroke: rgb(0, 0, 0); stroke-width: 1; fill: none;"></path></g></g><g transform="translate(310.875 146.0625) rotate(0 67 17.5)"><text x="0" y="25" font-family="Virgil" font-size="28px" fill="#000000" text-anchor="start">activation</text></g></svg>