<svg version="1.1" xmlns="http://www.w3.org/2000/svg" viewBox="0 0 475.66666666666754 367.0624999999999">
  <!-- svg-source:excalidraw -->
  <defs>
    <style>
      @font-face {
        font-family: "Virgil";
        src: url("https://excalidraw.com/FG_Virgil.woff2");
      }
      @font-face {
        font-family: "Cascadia";
        src: url("https://excalidraw.com/Cascadia.woff2");
      }
    </style>
  </defs>
  <g transform="translate(10 124.24999999999955) rotate(0 8.5 17.5)"><text x="0" y="25" font-family="Virgil" font-size="28px" fill="#000000" text-anchor="start">X</text></g><g transform="translate(74.66666666666754 88.74999999999989) rotate(0 10.5 93.5)"><path d="M-0.47487964667379856 1.0845754090696573 C7.666618013102561 0.7720827562268824, 12.370957088284195 1.246934543317184, 22.68747810088098 0.25540762580931187 M-0.5401894180104136 0.5166032193228602 C8.074580647144467 0.44248357203789057, 14.672227489948273 -0.09838193866424264, 21.31199896056205 0.5018252907320857 M22.915809189900756 -1.9745943006128073 C19.790684792632238 50.66430490491912, 21.07253828966059 95.7954469235614, 20.97505376301706 186.8201945964247 M21.700667736120522 -0.0677097262814641 C20.298110700873657 61.573513862397526, 20.75887948992662 123.17868379354478, 21.159237531013787 187.55485956650227 M20.817657923325896 185.16561686433852 C15.97677575899288 187.81718588181772, 9.429081689752637 184.980815592492, 1.0286110993474722 187.08637660183012 M21.364182856865227 186.47068374138325 C12.515686022024601 188.04688697571865, 4.766337937489151 186.43302532549015, 0.7690083356574178 187.80137051921338 M-0.5980077628046274 188.56728165782988 C-0.15344481089152384 114.99895388083532, 1.0599310555215926 39.8819753622636, 1.759710168465972 -1.03045797906816 M-0.734427991323173 187.4264308391139 C0.6365939149726183 142.0030035582371, 0.9427282283175737 98.87939908467233, -0.3979647485539317 -0.15637744683772326" style="stroke: rgb(0, 0, 0); stroke-width: 1; fill: none;"></path></g><g transform="translate(151.16666666666754 89.24999999999989) rotate(0 10.5 93.5)"><path d="M1.759710168465972 -1.03045797906816 C7.144391429144889 -0.5100456719938665, 18.59313480835408 -1.5579828863684089, 21.852861678227782 0.48606973327696323 M-0.3979647485539317 -0.15637744683772326 C4.8299634591676295 0.11432993677444755, 9.788204967975616 0.5369463291484863, 20.252681729383767 0.19975908380001783 M20.148270403966308 -1.839330142363906 C22.519396129483358 67.53756393669174, 20.226504448289052 134.13594887573274, 20.69421694241464 186.54602729715407 M20.975487467832863 0.755559760145843 C19.312877151994034 39.21255110194907, 19.564985815314575 80.80206788778305, 21.265108135528862 186.0348101137206 M21.18007061444223 187.18862974084914 C17.476321774255485 186.5497726649884, 10.457606732286512 189.03875790544785, 1.0039464589208364 188.4995185676962 M21.594229486770928 187.05155591946095 C16.131967972498387 186.60950629587285, 10.445979231968522 186.57802303309552, 0.7650423618033528 186.3598466096446 M1.7842489834874868 186.48268192447722 C-0.41922125318087655 145.27444811062887, 0.41032740375958365 108.10618660207838, -0.29857721365988255 -0.6206805761903524 M0.08207112271338701 186.65516449790448 C1.2074437186587603 138.73936652811244, 1.603990171896294 90.48728296719491, 0.3968020351603627 0.03103922586888075" style="stroke: rgb(0, 0, 0); stroke-width: 1; fill: none;"></path></g><g transform="translate(241.16666666666754 89.24999999999989) rotate(0 10.5 93.5)"><path d="M-1.7163390759378672 -1.403534596785903 C8.901496341545135 -0.00135793053545058, 15.35115510802716 -0.7019688662234693, 19.320642923936248 -0.24541867338120937 M-0.6810005931183696 -0.5796304168179631 C8.425127856526524 0.2927251833397895, 15.624271023273469 0.875800140472129, 20.70557060558349 -0.4012978794053197 M20.260781263932586 1.172391289845109 C22.43864205234684 75.05464129624889, 22.041801778012886 149.04394124466927, 20.114022647961974 187.9872397724539 M20.15569415409118 0.5125121353194118 C21.903913219897078 48.11949923625217, 22.17197017881088 94.72433770895006, 20.292964396066964 187.68436254840344 M20.127906715497375 186.18506377376616 C11.097818102966993 187.0989707849268, 4.079118269123136 187.82578523376026, -0.6294113639742136 188.6840496007353 M21.294471916742623 187.4538930831477 C15.87682567415759 187.39191977228037, 10.725106746330857 187.9008389219176, -0.24623921792954206 186.786711323075 M-1.8596526626497507 187.7063212338835 C-1.1905125070456415 125.52547094123437, -0.2870559979323297 61.774058285914364, 0.023385321721434593 0.8328648153692484 M0.7741815717890859 187.5186518309638 C-0.22506822462193665 139.10039476128293, -0.33607201094739136 90.05297490321098, -0.6964335469529033 0.456255036406219" style="stroke: rgb(0, 0, 0); stroke-width: 1; fill: none;"></path></g><g><g transform="translate(40.16666666666754 142.4999999999999) rotate(0 14.577835574437188 -0.15462888026442556)"><path d="M-0.8357202563434839 0.5475060436874628 C4.056457594326795 0.5700913045555352, 23.956663030344547 1.00891554094851, 29.03090150418377 0.8798417899757622 M-0.10519010935910056 -1.2117688731383534 C5.109407742043123 -0.9733282805513592, 24.84443552731119 0.045116617875173626, 29.991391405217932 0.46785460998304185" style="stroke: rgb(0, 0, 0); stroke-width: 1; fill: none;"></path></g><g transform="translate(40.16666666666754 142.4999999999999) rotate(0 14.577835574437188 -0.15462888026442556)"><path d="M16.65922572945293 4.394628608835009 C20.861193288034162 4.077848254479336, 23.33961779625638 1.3888062645691965, 29.224141562461504 0.384028247788859 M16.635312672028956 5.087433696242283 C18.753094583738648 3.7777770394643144, 23.242150079727516 2.576106243608381, 30.221233212279582 0.1617232829433249" style="stroke: rgb(0, 0, 0); stroke-width: 1; fill: none;"></path></g><g transform="translate(40.16666666666754 142.4999999999999) rotate(0 14.577835574437188 -0.15462888026442556)"><path d="M17.30389070127904 -5.560106611998138 C21.391512927294528 -3.1622121668703826, 23.69384535041415 -3.1320896941678424, 29.224141562461504 0.384028247788859 M17.27997764385507 -4.8673015245908635 C19.291910697169733 -3.8480609666513095, 23.6302544036032 -2.722482687019029, 30.221233212279582 0.16172328294332478" style="stroke: rgb(0, 0, 0); stroke-width: 1; fill: none;"></path></g></g><g><g transform="translate(109.7500000000008 142.16666666666652) rotate(0 15.06949694324129 0.6086807600688076)"><path d="M0.03437367416918269 0.8516258206218479 C4.770199028692305 0.7828695621341465, 23.668896252620517 -0.18121197558939456, 28.39665390389657 -0.4860716734081506 M1.7238760696817188 -0.5382403937447817 C6.757796297931209 -0.009347006725147433, 25.360824276437537 1.4364256956707686, 30.10462021231337 1.7556019138824195" style="stroke: rgb(0, 0, 0); stroke-width: 1; fill: none;"></path></g><g transform="translate(109.7500000000008 142.16666666666652) rotate(0 15.06949694324129 0.6086807600688076)"><path d="M17.10597238065033 4.7861064220961484 C19.671412572389343 3.603433339751853, 23.262835066578567 3.2713769043912033, 28.97480363015858 3.129364719867394 M16.47742524139795 6.270480903756926 C19.206232806980484 4.7910615804984396, 23.494514292658515 3.265180910905417, 30.19687854820005 1.4077334997329556" style="stroke: rgb(0, 0, 0); stroke-width: 1; fill: none;"></path></g><g transform="translate(109.7500000000008 142.16666666666652) rotate(0 15.06949694324129 0.6086807600688076)"><path d="M17.839735216425797 -5.1624582152588445 C20.1800691123588 -3.3755218100808064, 23.5524816354967 -0.7381789422910763, 28.97480363015858 3.129364719867394 M17.211188077173418 -3.6780837335980667 C19.79243892017705 -2.4585019609354664, 23.882173019474518 -1.292420853945235, 30.19687854820005 1.4077334997329556" style="stroke: rgb(0, 0, 0); stroke-width: 1; fill: none;"></path></g></g><g><g transform="translate(276.7500000000008 139.16666666666652) rotate(0 13.820923034551868 0.22188380725478396)"><path d="M0.2178844179958106 0.6987410757690669 C5.090350202015699 0.80015705563128, 23.785260075289308 -0.38312793038785453, 28.497135115290643 -0.5575164701789618 M-1.614002902256325 0.8859051849413664 C3.293681020160303 1.152079713838175, 24.314053482399807 0.8934267004299908, 29.255848971360013 0.7590298544336109" style="stroke: rgb(0, 0, 0); stroke-width: 1; fill: none;"></path></g><g transform="translate(276.7500000000008 139.16666666666652) rotate(0 13.820923034551868 0.22188380725478396)"><path d="M16.489469684326963 5.169401557277547 C18.261222018028416 3.888875608895396, 21.764034228045976 3.3145693028051832, 28.58803006964887 -0.5271746441768468 M15.190095913049552 6.0147548920122285 C20.1298361637081 4.337518698240935, 25.369768296986024 2.8880679446496877, 29.19894899395834 0.18188736484463697" style="stroke: rgb(0, 0, 0); stroke-width: 1; fill: none;"></path></g><g transform="translate(276.7500000000008 139.16666666666652) rotate(0 13.820923034551868 0.22188380725478396)"><path d="M16.3169545813028 -4.804694130153173 C18.032940671371495 -3.7064285522235982, 21.576902627299344 -1.9016300957286019, 28.58803006964887 -0.5271746441768468 M15.017580810025388 -3.959340795418492 C20.022287794231268 -2.1622166614719043, 25.322325935151405 -0.1365915457412462, 29.19894899395834 0.18188736484463697" style="stroke: rgb(0, 0, 0); stroke-width: 1; fill: none;"></path></g></g><g transform="translate(193.16666666666742 117.16666666666652) rotate(0 11.5 17.5)"><text x="0" y="25" font-family="Virgil" font-size="28px" fill="#000000" text-anchor="start">...</text></g><g transform="translate(312.66666666666754 119.3333333333332) rotate(0 12.5 17.5)"><text x="0" y="25" font-family="Virgil" font-size="28px" fill="#000000" text-anchor="start">Z</text></g><g transform="translate(307.66666666666754 195.00000000000017) rotate(0 19.166666666666686 19.166666666666686)"><path d="M22.024591616036496 -0.5329958329928921 C25.77788519205565 -0.4631619690398286, 30.12626274919638 2.7537068155839735, 32.770389932999535 5.939923344039299 C35.41451711680269 9.126139872494624, 37.69469667564494 14.531870422100564, 37.88935471885543 18.58430333773906 C38.08401276206592 22.636736253377553, 36.45075521040385 27.1094587349182, 33.93833819226245 30.254520837870274 C31.425921174121054 33.39958294082235, 26.796577692176808 36.58030124396822, 22.81485261000705 37.45467595545151 C18.833127527837295 38.329050666934805, 13.432849871584716 37.156204655792955, 10.047987699243905 35.50076910677001 C6.663125526903093 33.84533355774706, 4.0745121640844 31.012981364798243, 2.5056795759621835 27.522062661313832 C0.9368469878399672 24.03114395782942, -0.37582470332049756 18.662683478779265, 0.634992170510607 14.555256885863535 C1.6458090443417115 10.447830292947806, 4.855312571588364 5.328309756908181, 8.57058081894881 2.8775031038194587 C12.285849066309257 0.42669645073073603, 20.18617489077493 0.18674848981341885, 22.926601654673288 -0.1495830326688008 C25.667028418571647 -0.48591455515102044, 25.04383657000625 0.5603181738544578, 25.01314140233896 0.8595139689261408 M21.98510639111456 -0.71500867473355 C26.05462876194311 -0.6106079833962891, 29.48240253410594 3.584382630211161, 32.19155597029779 6.340811388660175 C34.900709406489646 9.097240147109188, 37.568440927084865 12.001494025235688, 38.24002700826567 15.82356387596053 C38.911613089446476 19.64563372668537, 38.39297974927376 25.577437015297736, 36.22107245738261 29.273230493009226 C34.04916516549146 32.96902397072071, 29.300578777723505 36.79380910764794, 25.20858325691878 37.99832474222947 C21.116587736114052 39.202840376811004, 15.57961194725386 38.283907803174394, 11.66909933255426 36.50032430049842 C7.758586717854662 34.716740797822446, 3.6064679771392205 31.154188762599482, 1.7455075687211838 27.29682372617362 C-0.1154528396968526 23.43945868974776, -0.45229807535335187 17.532316196774595, 0.5033368820460424 13.356134081943246 C1.4589718394454367 9.179951967111897, 3.980459826215309 4.651166612925085, 7.47931731311755 2.2397310371855212 C10.97817480001979 -0.17170453855404189, 19.0947824002321 -0.9737706581067211, 21.49648180345949 -1.112479372494132 C23.89818120668688 -1.2511880868815428, 21.886032358391702 0.7949764741382346, 21.889513732481888 1.4074787508610562" style="stroke: rgb(0, 0, 0); stroke-width: 1; fill: none;"></path></g><g><g transform="translate(323.5000000000009 154.9999999999999) rotate(0 0.7730766847590189 15.040596245353385)"><path d="M-0.07061181329190735 -0.5028394136577844 C-0.010040136136948798 4.5359218669848245, 0.3095520920637266 25.105702676334282, 0.20532999175286482 30.584031904364586 M1.6167651828099041 0.6921394168864934 C1.4817890315885696 5.741677145480896, 1.2527622138760257 25.711492677814192, 0.9484591945974401 30.573782414846704" style="stroke: rgb(0, 0, 0); stroke-width: 1; fill: none;"></path></g><g transform="translate(323.5000000000009 154.9999999999999) rotate(0 0.7730766847590189 15.040596245353385)"><path d="M-4.637063098580748 16.89002496485604 C-3.9465403682732028 20.021389419277014, -0.18131700796444838 25.67994954195896, 1.1878209411860712 31.973107243879102 M-3.7032045796584208 14.739792481934339 C-2.543824623058351 20.44097278357247, 0.19343184994145746 24.929414125408385, 0.9600758342037624 30.626547493560526" style="stroke: rgb(0, 0, 0); stroke-width: 1; fill: none;"></path></g><g transform="translate(323.5000000000009 154.9999999999999) rotate(0 0.7730766847590189 15.040596245353385)"><path d="M6.191393453272999 17.248466015704935 C3.7749943706186206 20.270648809906575, 4.434345744669909 25.826399080304846, 1.1878209411860712 31.973107243879102 M7.1252519721953265 15.098233532783235 C4.623052976234278 20.61365659328547, 3.70222048348229 24.98100872478897, 0.9600758342037624 30.626547493560526" style="stroke: rgb(0, 0, 0); stroke-width: 1; fill: none;"></path></g></g><g transform="translate(318.5000000000015 292.5000000000001) rotate(0 7 17.5)"><text x="0" y="25" font-family="Virgil" font-size="28px" fill="#000000" text-anchor="start">Y</text></g><g><g transform="translate(326.83333333333417 283.3333333333332) rotate(0 -0.35433464206857934 -19.788931224144335)"><path d="M0.7287799213081598 -0.2644185338169336 C0.8220652130329009 -6.523435022474985, 0.3712114692148551 -31.817836197920936, 0.28628745613002593 -38.41820514934754 M-1.4500206906627864 -0.10875898336060352 C-1.3422102235454174 -6.833034094486172, -1.1476633237167464 -32.71296579925237, -0.6315524663558472 -39.46910346492811" style="stroke: rgb(0, 0, 0); stroke-width: 1; fill: none;"></path></g><g transform="translate(326.83333333333417 283.3333333333332) rotate(0 -0.35433464206857934 -19.788931224144335)"><path d="M4.939723754886572 -21.71679013521636 C5.063235161795112 -26.958523007277645, 1.0348585772619385 -32.4932403186333, 0.30667709650667363 -41.02116167230037 M5.806609562085642 -21.615334279307408 C3.4526030372881324 -26.186175966182, 2.650768068299139 -30.85493763565829, -0.11773894673019658 -39.205317882376136" style="stroke: rgb(0, 0, 0); stroke-width: 1; fill: none;"></path></g><g transform="translate(326.83333333333417 283.3333333333332) rotate(0 -0.35433464206857934 -19.788931224144335)"><path d="M-8.449630361148031 -22.220369755799492 C-4.618020163373061 -27.403818753872986, -4.934671738030627 -32.79893642091543, 0.30667709650667385 -41.02116167230037 M-7.582744553948961 -22.11891389989054 C-6.0035503742659015 -26.519546480295737, -2.868153564265007 -31.040227094612153, -0.11773894673019669 -39.205317882376136" style="stroke: rgb(0, 0, 0); stroke-width: 1; fill: none;"></path></g></g><g transform="translate(73.50000000000102 10) rotate(0 94.58333333333331 26.249999999999915)"><path d="M-0.9646400455385447 -0.13963819108903408 C64.74186188719855 0.13935661807190658, 130.12155679784092 -1.639667327259667, 189.5893904721985 1.3008168283849955 M-0.6800519553944468 -0.7879388453438878 C53.59195118312102 -1.125050397100858, 109.31509281803541 -2.1202768697170535, 189.52879027246183 0.06857534032315016 M190.23153992059326 -1.5031597074121237 C190.35440587423892 18.4236880561802, 190.37304525993915 34.966802070382876, 189.9698921597252 52.997775429859594 M188.5484404933328 -0.39561299700289965 C188.82187077150832 17.020337632624383, 188.52288919435034 32.93978538596993, 188.24338418959326 52.73154919128849 M190.31225217940903 51.05828558839841 C148.236980784762 53.2767098519251, 108.87774904770774 53.25872945517751, -0.3540020827203989 52.465465003624395 M190.0988422107572 51.54568879585697 C123.76927643789286 51.41261344105765, 56.85087113408369 52.29263301641509, 0.7916366429999471 51.592394250444904 M0.3550724145025015 52.20052045024915 C-0.37220618275459794 31.025461109122162, -1.9630600526696065 10.113274463918025, 1.7688511367887259 0.21322392858564854 M-0.9167557386681437 51.78373875003292 C-0.7953610545257102 35.8074454658198, 0.7871557051083078 18.326775770168695, 0.7644798429682851 0.2064999220892787" style="stroke: rgb(0, 0, 0); stroke-width: 1; fill: none;"></path></g><g transform="translate(126.83333333333485 18.3333333333332) rotate(0 42.5 17.5)"><text x="0" y="25" font-family="Virgil" font-size="28px" fill="#000000" text-anchor="start">Cache</text></g><g><g transform="translate(88.5000000000008 68.16666666666652) rotate(0 -0.9550741083829735 7.764038268104201)"><path d="M-1.1082846198230982 0.39311651922762403 C-1.449793597766082 3.0187977883964776, -1.7274888575490346 12.813135025277733, -1.5058336966980732 15.134960016980767 M-0.3277591804135591 0.9166022570896892 C-0.5419116723340707 2.9172203170228745, -1.4412635028496168 10.747231720881535, -1.2657813569374867 13.28145260025747" style="stroke: rgb(0, 0, 0); stroke-width: 1; fill: none;"></path></g></g><g><g transform="translate(160.16666666666754 68.31249999999989) rotate(0 1.2605622494199906 7.964848751230164)"><path d="M1.0295092675834894 1.0418555226176978 C1.142747884367903 3.7289596563826004, 0.5751246465990941 12.570982651536664, 0.6579322788864375 15.124034127220511 M1.5743640386033806 -0.11349257622845466 C1.70310055950967 2.6629414246014007, 1.6650321516363569 13.416158305260662, 1.869852876262739 16.043190078688784" style="stroke: rgb(0, 0, 0); stroke-width: 1; fill: none;"></path></g></g><g><g transform="translate(247.66666666666754 68.31249999999989) rotate(0 1.1569631610065585 7.738322875900195)"><path d="M-0.1314419176429511 0.7671934571117163 C0.19479260978599383 3.1715669797112542, 2.3935588373492163 12.766137684012453, 2.4453682396560907 15.195296439155936 M0.9335062240529806 -0.6410587385762483 C1.19018162587968 2.024762838038926, 1.842805394825215 13.40671360796007, 2.0036301859188823 16.117704490376635" style="stroke: rgb(0, 0, 0); stroke-width: 1; fill: none;"></path></g></g><g><g transform="translate(355.79166666666754 211.4374999999999) rotate(0 15.371878073052528 0.22360311452234782)"><path d="M1.1808915708214045 0.4170151200145482 C6.192137898380558 0.4426593945672114, 25.191247957323988 -0.4990186804284653, 29.686858222261073 -0.7417532358318568 M1.0568979238439353 0.779681870592758 C5.667142102119202 1.0005780626864482, 24.122653495169555 1.377698662929858, 28.99357538302429 1.0823139655124399" style="stroke: rgb(0, 0, 0); stroke-width: 1; fill: none;"></path></g><g transform="translate(355.79166666666754 211.4374999999999) rotate(0 15.371878073052528 0.22360311452234782)"><path d="M16.055133270024335 7.319101451433648 C19.058941005186743 3.9787946613928393, 22.30750877617237 4.36684616024164, 28.802599490207022 1.9127236506349234 M16.15748432666784 6.052135350789692 C20.800915297042337 4.562773852169189, 25.268694004119457 2.4693752854571533, 28.444511600545095 0.9224395802266321" style="stroke: rgb(0, 0, 0); stroke-width: 1; fill: none;"></path></g><g transform="translate(355.79166666666754 211.4374999999999) rotate(0 15.371878073052528 0.22360311452234782)"><path d="M15.911680825364332 -2.515254695923396 C18.88057559896223 -3.218595499138068, 22.167629033959805 -0.19216633194052424, 28.802599490207022 1.9127236506349234 M16.014031882007842 -3.7822207965673513 C20.719700114574465 -1.9036154859079955, 25.236626427748693 -0.6277088916344084, 28.444511600545095 0.9224395802266321" style="stroke: rgb(0, 0, 0); stroke-width: 1; fill: none;"></path></g></g><g transform="translate(394.66666666666754 191.4374999999999) rotate(0 35.5 17.5)"><text x="0" y="25" font-family="Virgil" font-size="28px" fill="#000000" text-anchor="start">error</text></g><g><g transform="translate(298.91666666666754 213.9374999999999) rotate(0 -13.22597578720655 0.9489031402620469)"><path d="M-0.31313808225095274 -0.28836833573877807 C-4.511150406425198 -0.24126855072875814, -21.30665666523079 -0.12388735550145305, -25.452934446558356 0.001330181583762191 M-0.572881307406351 1.4064101880323143 C-5.196596660915141 1.7925809652140987, -21.728398834072674 2.3298804779381803, -26.138813492162154 2.1539198407065125" style="stroke: rgb(0, 0, 0); stroke-width: 1; fill: none;"></path></g><g transform="translate(298.91666666666754 213.9374999999999) rotate(0 -13.22597578720655 0.9489031402620469)"><path d="M-14.410653826468323 -2.0656082213881377 C-18.1242704738886 -0.5932538372415335, -20.976447651908668 1.289803631288071, -26.253043111445304 1.7527053782345408 M-14.596541393721589 -2.3454497585624656 C-19.156654935340732 -0.49885149910813475, -23.314483344910894 1.1330367339740801, -26.34004100054331 2.1825217597918685" style="stroke: rgb(0, 0, 0); stroke-width: 1; fill: none;"></path></g><g transform="translate(298.91666666666754 213.9374999999999) rotate(0 -13.22597578720655 0.9489031402620469)"><path d="M-14.39619098442801 6.701252494808518 C-18.09327858138569 5.7370105173730765, -20.949475392384844 5.183509364875805, -26.253043111445304 1.7527053782345408 M-14.582078551681276 6.42141095763419 C-19.12302753369418 4.964312151098136, -23.286306308903402 3.2923824847137455, -26.34004100054331 2.1825217597918685" style="stroke: rgb(0, 0, 0); stroke-width: 1; fill: none;"></path></g></g><g><g transform="translate(142.66666666666754 223.9374999999999) rotate(0 -14.1469966014335 -0.7977417080011548)"><path d="M0.6357629623264074 0.11395445801317683 C-4.190797530983884 -0.016784789785742854, -24.46929341095189 0.19192660786211482, -29.47935724593699 0.17138137556612487 M1.1853640430700034 -1.7322769678663463 C-3.2590295260616884 -1.9234191904496403, -22.82445622488546 -1.3122647793125362, -28.09651587639935 -1.2128696731757374" style="stroke: rgb(0, 0, 0); stroke-width: 1; fill: none;"></path></g><g transform="translate(142.66666666666754 223.9374999999999) rotate(0 -14.1469966014335 -0.7977417080011548)"><path d="M-14.283037358455283 -6.701969495896231 C-17.679712414988156 -5.1864404892978495, -21.410546902399624 -4.89745558637302, -28.149500300422076 -0.2615016741270664 M-14.852701662236166 -7.030077302881148 C-17.54381483387294 -5.096168230449806, -19.61270801265202 -3.8259173056886127, -28.235438212168518 -0.820439586599241" style="stroke: rgb(0, 0, 0); stroke-width: 1; fill: none;"></path></g><g transform="translate(142.66666666666754 223.9374999999999) rotate(0 -14.1469966014335 -0.7977417080011548)"><path d="M-14.035923560638098 3.3418327283897704 C-17.576024905678 2.280756929961655, -21.37028538552835 -0.008172187141111564, -28.149500300422076 -0.2615016741270666 M-14.60558786441898 3.013724921404853 C-17.417611931031114 2.883601281731588, -19.53724747099138 2.091457291279955, -28.235438212168518 -0.8204395865992411" style="stroke: rgb(0, 0, 0); stroke-width: 1; fill: none;"></path></g></g><g transform="translate(193.04166666666754 195.8124999999999) rotate(0 11.5 17.5)"><text x="0" y="25" font-family="Virgil" font-size="28px" fill="#000000" text-anchor="start">...</text></g><g transform="translate(82.16666666666754 322.0624999999999) rotate(0 88 17.5)"><text x="0" y="25" font-family="Virgil" font-size="28px" fill="#000000" text-anchor="start">learning rate</text></g><g><g transform="translate(159.54166666666754 310.1874999999999) rotate(0 0.2790204868605315 -11.459965030504407)"><path d="M0.5959418501704932 0.309049579873681 C0.5176282491534949 -3.629285111650825, -0.2513353381305933 -19.72060690186918, -0.2677299175411463 -23.965849628672004 M-0.12461543415673071 1.7283778204489502 C0.04166345472447586 -2.265876994831488, 0.562459293259308 -20.32995507995598, 0.8257708912622186 -24.648307881457733" style="stroke: rgb(0, 0, 0); stroke-width: 1; fill: none;"></path></g><g transform="translate(159.54166666666754 310.1874999999999) rotate(0 0.2790204868605315 -11.459965030504407)"><path d="M4.81968510082094 -13.30159408279921 C3.7878622690802346 -16.18737137217098, 1.4066044059062344 -20.4885197414676, 0.3710512771701907 -24.731299717730145 M4.99039432618462 -12.965326552594133 C2.856043901416866 -17.568259480180114, 1.9795545322429082 -22.70666180965346, 0.6041329919005514 -25.143847968496267" style="stroke: rgb(0, 0, 0); stroke-width: 1; fill: none;"></path></g><g transform="translate(159.54166666666754 310.1874999999999) rotate(0 0.2790204868605315 -11.459965030504407)"><path d="M-3.5095891824351395 -13.654355061431543 C-1.9033022555366568 -16.469726147647382, -1.6454630953299476 -20.659103621063558, 0.3710512771701907 -24.731299717730145 M-3.3388799570714593 -13.318087531226466 C-2.1861823642728586 -17.769435341057083, 0.22278448221938618 -22.768692204733732, 0.6041329919005514 -25.143847968496267" style="stroke: rgb(0, 0, 0); stroke-width: 1; fill: none;"></path></g></g><g><g transform="translate(251.41666666666754 315.1874999999999) rotate(0 -0.09470972890966323 -14.414829451800301)"><path d="M-0.2540052440017462 0.5128667917102576 C-0.19624033632377783 -4.079774685079853, 0.12712878125409297 -23.779100083683925, -0.03209735415875903 -28.74638259746134 M1.1274678560066969 -0.19912270073778937 C0.6849382693537822 -5.357300023582454, -1.2068362790377192 -24.766525429732475, -1.3168873138260098 -29.342525695310904" style="stroke: rgb(0, 0, 0); stroke-width: 1; fill: none;"></path></g><g transform="translate(251.41666666666754 315.1874999999999) rotate(0 -0.09470972890966323 -14.414829451800301)"><path d="M5.10974182118969 -15.480774182345092 C3.069815759538874 -20.43405589989683, 0.8572415894099227 -22.212753485427186, -0.05462263776092535 -28.45666888154495 M4.92428326737378 -15.761065447866018 C3.000166036979111 -20.44738688068124, 0.6459049437328188 -24.340135317456312, -1.1364241026734552 -28.63536165572595" style="stroke: rgb(0, 0, 0); stroke-width: 1; fill: none;"></path></g><g transform="translate(251.41666666666754 315.1874999999999) rotate(0 -0.09470972890966323 -14.414829451800301)"><path d="M-4.703549815860803 -14.821648486340873 C-4.1026294590582655 -19.931095833157222, -3.6808964722158026 -21.886730944091596, -0.05462263776092513 -28.45666888154495 M-4.889008369676712 -15.1019397518618 C-3.97342472442994 -19.94705301185166, -3.490476967757645 -24.030367196296087, -1.1364241026734552 -28.63536165572595" style="stroke: rgb(0, 0, 0); stroke-width: 1; fill: none;"></path></g></g><g><g transform="translate(85.16666666666754 310.8124999999999) rotate(0 -0.3051974735269596 -11.584744618549053)"><path d="M-0.5425424370914698 -0.26598084233701225 C-0.5352755937725305 -4.350686993822455, 0.7518979039043189 -20.648780634626746, 0.8387595500797034 -24.61275810264051 M-1.449154497133568 1.4432688655424863 C-1.3400119150150567 -2.157649691803381, -0.20640975628979505 -18.957845864696427, -0.06859139864332975 -23.05040391216986" style="stroke: rgb(0, 0, 0); stroke-width: 1; fill: none;"></path></g><g transform="translate(85.16666666666754 310.8124999999999) rotate(0 -0.3051974735269596 -11.584744618549053)"><path d="M3.2206343869783574 -10.542377528526147 C1.9557871846036 -15.701264740719965, 1.2238315891402998 -20.43058499840899, -1.0308661622309594 -24.015517050629715 M3.28356891137258 -10.973700495010151 C2.639226317887782 -15.952746228198658, 0.6306516868439558 -19.816342431620534, 0.3161058762873291 -23.421995734341326" style="stroke: rgb(0, 0, 0); stroke-width: 1; fill: none;"></path></g><g transform="translate(85.16666666666754 310.8124999999999) rotate(0 -0.3051974735269596 -11.584744618549053)"><path d="M-5.104534273136826 -10.98148705289641 C-3.320560967727977 -15.941904958127363, -1.0033135866438005 -20.510395552970657, -1.0308661622309592 -24.015517050629715 M-5.041599748742604 -11.412810019380414 C-2.531973994799902 -16.285751063491976, -1.3864156929712332 -19.98298309238492, 0.316105876287329 -23.421995734341326" style="stroke: rgb(0, 0, 0); stroke-width: 1; fill: none;"></path></g></g><g transform="translate(320.8333333333343 196.66666666666686) rotate(0 6 17.5)"><text x="0" y="25" font-family="Virgil" font-size="28px" fill="#000000" text-anchor="start">-</text></g></svg>